<svg width="348" height="348" version="1.1" xmlns="http://www.w3.org/2000/svg" desc="Created with imagetracer.js version 1.2.6" ><path fill="rgb(255,255,255)" stroke="rgb(255,255,255)" stroke-width="1" opacity="0" d="M 0 0 L 348 0 L 348 348 L 0 348 L 0 0 Z M 27 48 L 27 294 L 309 294 L 309 48 L 27 48 Z " /><path fill="rgb(249,208,45)" stroke="rgb(249,208,45)" stroke-width="1" opacity="1" d="M 147.5 55 L 174.5 55 L 183.5 58 L 187.5 58 L 191.5 60 L 197.5 60 L 198.5 61 L 207.5 61 L 215.5 64 L 225.5 66 L 247.5 84 L 252.5 86 L 270 101.5 L 271 104.5 L 276 109.5 L 283 120.5 L 284 124.5 L 294 144.5 L 289.5 150 Q 287.25 150.75 288 148.5 L 283 143.5 L 282 139.5 L 278.5 136 Q 273 135 272 138.5 Q 272.5 142 270 142.5 L 270 146.5 L 275 159.5 L 281.5 167 Q 283.33 168.67 287.5 168 L 295.5 162 L 300 161 L 300 186.5 L 298.5 189 L 296 183.5 L 287.5 175 L 275.5 167 L 269.5 165 Q 265.5 166 264.5 164 L 253.5 164 Q 252.5 166 248.5 165 L 245.5 167 L 242 163.5 L 241 160.5 L 237 155.5 L 229.5 148 L 224.5 145 L 215.5 145 L 210.5 148 L 208.5 148 L 202 154.5 L 192 172.5 Q 192.75 175.75 191 176.5 L 191 182.5 L 197.5 188 L 199.5 188 L 202 185.5 L 202 181.5 L 204 179.5 L 204 177.5 L 206 175.5 L 209 167.5 L 214.5 161 L 218.5 159 L 224.5 159 L 234 165.5 L 238 171.5 L 232 177.5 L 230 185.5 L 227 188.5 Q 227.75 191.75 226 192.5 L 226 207.5 L 231 218.5 L 240.5 228 L 243.5 228 L 246.5 230 Q 250.5 229 251.5 231 L 270.5 231 Q 271.5 229 275.5 230 L 286 225 L 282 233.5 L 282 235.5 L 269.5 250 L 254.5 263 L 227.5 278 L 215.5 282 L 210.5 282 L 206.5 284 L 200.5 284 L 199.5 285 L 195.5 285 L 189.5 287 L 160.5 287 L 159.5 286 L 153.5 286 L 152.5 285 L 138.5 284 L 131.5 281 L 126.5 281 L 117.5 278 L 113.5 275 L 102.5 270 L 94 263.5 L 95 252.5 Q 93 247 88.5 244 Q 81.5 242.5 80 246.5 Q 80.67 249.12 78 248 L 78 246.5 L 70 236.5 L 64 224.5 L 65 224.5 L 66 227.5 L 73.5 236 L 81.5 239 L 97.5 239 L 112.5 233 L 125 221.5 Q 126.67 219.67 126 215.5 L 127 214.5 L 127 205.5 L 119 192.5 L 115 188.5 L 115 186.5 L 118 179.5 L 123 173.5 L 124 170.5 L 129.5 165 L 137.5 164 L 147 169.5 L 151 175.5 L 151 178.5 L 153 181.5 L 154 186.5 L 157.5 190 Q 164.5 191.5 166 187.5 L 166 182.5 L 162 177.5 L 158 169.5 L 140.5 151 L 136.5 149 L 125.5 149 Q 114.57 154.07 108 163.5 L 104 168.5 L 99 179 L 88.5 179 Q 87.5 181 83.5 180 L 70 190.5 L 63 200.5 L 63 203.5 L 61 208.5 L 60.5 216 L 58 209.5 L 57 198.5 L 55 193.5 L 55 164.5 L 56 163.5 L 56 158.5 L 57 157.5 L 58 148.5 L 65 128.5 L 71 119.5 L 74 113.5 L 74 111.5 L 80 101.5 L 87 92.5 L 95.5 84 L 105.5 76 L 108.5 74 L 110.5 74 L 116 69.5 Q 115.17 66.87 118.5 68 L 121.5 65 L 125.5 64 L 138.5 57 L 146.5 56 L 147.5 55 Z M 188 197 Q 180 200 176 206 Q 176 210 179 210 L 181 210 L 187 205 L 191 204 L 193 207 L 193 209 L 195 212 L 195 219 L 194 219 L 190 223 L 190 225 L 195 228 L 198 232 L 199 235 L 199 239 L 198 241 L 193 243 L 187 243 L 184 246 Q 183 250 187 250 L 195 250 L 200 248 L 206 241 L 206 233 Q 204 232 205 229 L 200 224 L 202 221 L 202 210 L 198 201 L 196 198 L 193 197 L 188 197 Z " /><path fill="rgb(249,208,45)" stroke="rgb(249,208,45)" stroke-width="1" opacity="1" d="M 249.5 76 L 249.5 77 L 249.5 76 Z " /><path fill="rgb(249,208,45)" stroke="rgb(249,208,45)" stroke-width="1" opacity="1" d="M 82.5 204 L 82.5 205 L 82.5 204 Z " /><path fill="rgb(0,0,0)" stroke="rgb(0,0,0)" stroke-width="1" opacity="0" d="M 27 48 L 145 48.5 L 136.5 50 L 123.5 57 L 121.5 57 Q 116 59 113 63.5 Q 113.83 66.12 110.5 65 L 108.5 67 L 106.5 67 L 103.5 69 L 83 86.5 L 69 105.5 L 64 117.5 L 56 130.5 L 53 139.5 L 53 142.5 L 50 150.5 L 49 161.5 L 48 162.5 L 48 195.5 L 50 200.5 L 51 211.5 L 56 222.5 L 57 227.5 L 67 244.5 L 77 255.5 L 77 258.5 L 76.5 259 L 74.5 257 L 68.5 254 L 64.5 254 Q 59.47 256.47 61 265.5 L 62 268.5 L 68.5 275 L 73.5 278 L 85.5 278 L 91 272.5 L 91 271 L 94.5 272 L 100.5 277 L 111.5 282 L 115.5 285 L 124.5 288 L 129.5 288 L 136.5 291 L 142.5 291 L 143.5 292 L 150.5 292 L 151.5 293 L 158 293.5 L 27 294 L 27.5 99 Q 29.4 105.1 34.5 108 L 41.5 111 L 43.5 113 L 49 114 Q 48.25 117.83 51.5 119 Q 55.5 119.5 56 116.5 L 56 114.5 L 64 105.5 L 67 99.5 L 67 91.5 L 63.5 87 L 58.5 86 L 56.5 87 L 53.5 86 L 50 89.5 L 49 95.5 L 46.5 100 L 40 94.5 L 35.5 89 Q 33.67 87.33 29.5 88 L 27.5 90 L 27 89.5 L 27 48 Z " /><path fill="rgb(0,0,0)" stroke="rgb(0,0,0)" stroke-width="1" opacity="0" d="M 177.5 48 L 309 48 L 309 140.5 L 308.5 141 L 306.5 139 L 301.5 139 L 299 140 L 298 135.5 L 291 122.5 L 290 118.5 L 283 107.5 L 278 102.5 L 277 99.5 L 270.5 93 L 254.5 79 L 251.5 78 L 241.5 71 Q 235.58 63.92 227.5 59 L 217.5 57 L 209.5 54 L 200.5 54 L 199.5 53 L 193.5 53 L 189.5 51 L 185.5 51 L 181.5 49 L 177.5 49 L 177.5 48 Z " /><path fill="rgb(0,0,0)" stroke="rgb(0,0,0)" stroke-width="1" opacity="0" d="M 90.5 88 L 90.5 89 L 90.5 88 Z " /><path fill="rgb(0,0,0)" stroke="rgb(0,0,0)" stroke-width="1" opacity="0" d="M 59.5 96 L 60 97.5 L 59 97.5 L 59.5 96 Z " /><path fill="rgb(0,0,0)" stroke="rgb(0,0,0)" stroke-width="1" opacity="0" d="M 58.5 99 L 58.5 100 L 58.5 99 Z " /><path fill="rgb(0,0,0)" stroke="rgb(0,0,0)" stroke-width="1" opacity="0" d="M 76.5 107 L 76.5 108 L 76.5 107 Z " /><path fill="rgb(0,0,0)" stroke="rgb(0,0,0)" stroke-width="1" opacity="0" d="M 75.5 109 L 75.5 110 L 75.5 109 Z " /><path fill="rgb(0,0,0)" stroke="rgb(0,0,0)" stroke-width="1" opacity="0" d="M 308.5 148 L 309 294 L 192 293.5 L 196.5 293 L 197.5 292 L 201.5 292 L 202.5 291 L 208.5 291 L 212.5 289 L 217.5 289 L 229.5 285 L 256.5 270 L 279 250.5 L 281 246.5 L 289 237.5 L 289 235.5 L 295 223.5 L 295 219.5 L 296 218.5 L 297 211.5 L 305 196.5 L 305 193.5 L 307 188.5 L 307 159.5 Q 304.75 158.25 306 153.5 L 308.5 148 Z " /><path fill="rgb(0,0,0)" stroke="rgb(0,0,0)" stroke-width="1" opacity="0" d="M 268.5 250 Q 270 251 267.5 252 Q 266 251 268.5 250 Z " /><path fill="rgb(0,0,0)" stroke="rgb(0,0,0)" stroke-width="1" opacity="0" d="M 261.5 256 Q 263 257 260.5 258 Q 259 257 261.5 256 Z " /><path fill="rgb(0,0,0)" stroke="rgb(0,0,0)" stroke-width="1" opacity="0" d="M 241.5 270 L 241.5 271 L 241.5 270 Z " /><path fill="rgb(4,4,4)" stroke="rgb(4,4,4)" stroke-width="1" opacity="1" d="M 145.5 48 L 176.5 48 L 185.5 51 L 189.5 51 L 193.5 53 L 199.5 53 L 200.5 54 L 209.5 54 L 217.5 57 L 227.5 59 L 249.5 77 L 254.5 79 L 277 99.5 L 278 102.5 L 283 107.5 L 290 118.5 L 291 122.5 L 300 140.5 L 293 144 L 291 139.5 L 291 137.5 L 284 124.5 L 283 120.5 L 268.5 100 L 252.5 86 L 247.5 84 L 225.5 66 L 215.5 64 L 207.5 61 L 198.5 61 L 197.5 60 L 191.5 60 L 187.5 58 L 183.5 58 L 174.5 55 L 147.5 55 L 146.5 56 L 138.5 57 L 125.5 64 L 121.5 65 L 118.5 68 L 116 68 Q 116.5 70.88 113.5 72 L 105.5 76 L 91.5 88 L 90 88 L 90 89.5 L 76 107.5 L 71 119.5 L 63 132.5 L 60 141.5 L 60 144.5 L 58 148.5 L 57 157.5 L 56 158.5 L 56 163.5 L 55 164.5 L 55 193.5 L 57 198.5 L 58 209.5 L 63 220.5 L 64 225.5 L 70 236.5 L 79 248.5 Q 77 249.5 78 253.5 L 76.5 255 L 71 249.5 L 63 238.5 L 57 227.5 L 56 222.5 L 51 211.5 L 50 200.5 L 48 195.5 L 48 162.5 L 49 161.5 L 50 150.5 L 51 149.5 L 51 146.5 L 53 142.5 L 53 139.5 L 56 130.5 L 64 117.5 L 69 105.5 L 83 86.5 L 88.5 81 L 106.5 67 Q 110 67.5 110.5 65 L 113 65 L 113 63.5 L 117.5 59 L 123.5 57 L 136.5 50 L 144.5 49 L 145.5 48 Z " /><path fill="rgb(4,4,4)" stroke="rgb(4,4,4)" stroke-width="1" opacity="1" d="M 215.5 145 L 224.5 145 Q 232.19 148.81 237 155.5 L 253 177.5 Q 254.67 179.33 254 183.5 Q 253.5 186.5 249.5 186 L 245 181.5 L 244 178.5 L 232.5 164 L 224.5 159 L 218.5 159 L 212 163.5 L 209 167.5 Q 208 174 204 177.5 L 204 179.5 L 202 181.5 L 202 185.5 L 199.5 188 L 197.5 188 L 191 182.5 L 191 176.5 Q 192.75 175.75 192 172.5 L 197 162.5 L 202 154.5 L 208.5 148 L 210.5 148 L 215.5 145 Z " /><path fill="rgb(4,4,4)" stroke="rgb(4,4,4)" stroke-width="1" opacity="1" d="M 125.5 149 L 136.5 149 L 140.5 151 L 151 161.5 L 158 169.5 L 162 177.5 L 166 182.5 L 166 187.5 Q 164.5 191.5 157.5 190 L 154 186.5 L 153 181.5 L 151 178.5 L 151 175.5 L 145.5 168 L 137.5 164 L 134.5 164 Q 133.5 166 129.5 165 L 124 170.5 L 123 173.5 L 118 179.5 L 114 188.5 L 114 190.5 L 109.5 195 L 103.5 196 Q 102.5 194 101.5 196 Q 97.5 196.5 97 193.5 L 97 183.5 L 100 175.5 L 108 163.5 L 118.5 153 L 125.5 149 Z " /><path fill="rgb(4,4,4)" stroke="rgb(4,4,4)" stroke-width="1" opacity="1" d="M 305.5 154 L 306 158.5 L 307 159.5 L 307 188.5 L 306 189.5 L 306 192.5 L 303 201.5 L 297 211.5 L 297 214.5 L 295 219.5 L 295 223.5 L 289 235.5 L 289 237.5 L 274.5 255 L 268.5 259 L 256.5 270 L 229.5 285 L 217.5 289 L 212.5 289 L 208.5 291 L 202.5 291 L 201.5 292 L 197.5 292 L 191.5 294 L 158.5 294 L 157.5 293 L 151.5 293 L 150.5 292 L 136.5 291 L 129.5 288 L 124.5 288 L 115.5 285 L 111.5 282 L 100.5 277 L 92 270.5 Q 94 269.5 93 265.5 L 94.5 264 L 102.5 270 L 113.5 275 L 117.5 278 L 126.5 281 L 131.5 281 L 138.5 284 L 152.5 285 L 153.5 286 L 159.5 286 L 160.5 287 L 189.5 287 L 190.5 286 L 194.5 286 L 200.5 284 L 206.5 284 L 210.5 282 L 215.5 282 L 227.5 278 L 254.5 263 L 274 245.5 L 282 235.5 L 282 233.5 L 288 221.5 L 288 217.5 L 289 216.5 L 290 209.5 L 298 194.5 L 298 191.5 L 300 186.5 L 300 161.5 L 299 160.5 L 305.5 154 Z " /><path fill="rgb(4,4,4)" stroke="rgb(4,4,4)" stroke-width="1" opacity="1" d="M 267.5 171 Q 271.5 170.5 272 173.5 L 271 183.5 L 268 188.5 L 268 191.5 L 263 200.5 L 259.5 204 Q 255.5 204.5 255 201.5 L 255 199.5 L 258 195.5 L 261 189.5 L 261 186.5 L 264 181.5 L 264 176.5 L 265 173.5 L 267.5 171 Z " /><path fill="rgb(4,4,4)" stroke="rgb(4,4,4)" stroke-width="1" opacity="1" d="M 276.5 177 Q 280.5 176.5 281 179.5 L 281.5 189 L 283 182.5 L 285.5 180 Q 289.5 179.5 290 182.5 L 289 190.5 L 287 193.5 L 284 203.5 L 281.5 206 Q 277.5 206.5 277 203.5 L 276.5 200 L 273.5 204 Q 268.75 204.75 268 201.5 L 268 199.5 L 270 197.5 L 270 195.5 L 272 192.5 L 272 189.5 L 274 186.5 L 274 179.5 L 276.5 177 Z M 281 189 L 280 191 L 281 191 L 281 189 Z M 280 191 L 279 194 L 280 194 L 280 191 Z M 279 195 L 278 197 L 279 197 L 279 195 Z M 278 197 L 277 199 L 278 199 L 278 197 Z " /><path fill="rgb(4,4,4)" stroke="rgb(4,4,4)" stroke-width="1" opacity="1" d="M 75.5 188 L 77.5 188 L 86.5 197 L 89.5 198 L 101 208.5 Q 101.5 212.5 98.5 213 L 95.5 213 L 87.5 205 L 84.5 204 L 73 192.5 Q 72.5 188.5 75.5 188 Z " /><path fill="rgb(4,4,4)" stroke="rgb(4,4,4)" stroke-width="1" opacity="1" d="M 73.5 197 L 75.5 197 L 79 200.5 L 90 212.5 L 90 214.5 Q 89.5 217.5 85.5 217 L 81.5 213 L 81 213.5 Q 81.75 218.25 78.5 219 L 76.5 219 L 67 209.5 L 66 205.5 Q 66.5 202.5 70.5 203 L 72 203.5 L 71 199.5 L 73.5 197 Z M 73 204 L 73 205 L 73 204 Z M 74 205 L 74 206 L 74 205 Z M 75 206 L 74 208 L 78 210 L 78 210 L 75 206 Z M 79 210 L 79 211 L 79 210 Z M 80 211 L 80 212 L 80 211 Z M 81 212 L 81 213 L 81 212 Z " /><path fill="rgb(4,4,4)" stroke="rgb(4,4,4)" stroke-width="1" opacity="1" d="M 187.5 197 L 192.5 197 L 195.5 198 L 198 200.5 L 202 209.5 L 202 220.5 L 200 223.5 L 205 228.5 Q 204.25 231.75 206 232.5 L 206 240.5 L 199.5 248 L 194.5 250 L 186.5 250 Q 183.5 249.5 184 245.5 L 186.5 243 L 192.5 243 L 198 241 L 199 238.5 L 199 234.5 L 198 231.5 L 194.5 228 L 190 224.5 L 190 222.5 L 193.5 219 L 195 218.5 L 195 211.5 L 193 208.5 L 193 206.5 L 190.5 204 L 186.5 205 L 180.5 210 L 178.5 210 Q 175.5 209.5 176 205.5 Q 180.08 199.58 187.5 197 Z " /><path fill="rgb(249,131,45)" stroke="rgb(249,131,45)" stroke-width="1" opacity="1" d="M 253.5 164 L 264.5 164 L 265.5 165 L 269.5 165 L 275.5 167 L 287.5 175 L 296 183.5 L 299 190.5 L 296 199.5 L 290 209.5 L 290 212.5 L 288 217.5 L 288 221.5 L 285.5 225 L 275.5 230 Q 271.5 229 270.5 231 L 251.5 231 Q 250.5 229 246.5 230 L 243.5 228 L 240.5 228 L 231 218.5 L 226 207.5 L 226 192.5 Q 227.75 191.75 227 188.5 L 230 185.5 L 232 177.5 L 237.5 172 L 241 174.5 L 245 181.5 L 249.5 186 Q 253.5 186.5 254 183.5 L 254 179.5 L 246 167.5 L 246 166 L 248.5 165 L 252.5 165 L 253.5 164 Z M 268 171 L 265 174 L 264 177 L 264 182 L 261 187 L 261 190 L 258 196 L 255 200 L 255 202 Q 255 205 260 204 L 263 201 L 268 192 L 268 189 L 271 184 L 272 174 Q 271 171 268 171 Z M 277 177 L 274 180 L 274 187 L 272 190 L 272 193 L 270 196 L 270 198 L 268 200 L 268 202 Q 269 205 274 204 L 277 200 L 277 204 Q 278 206 282 206 L 284 204 L 287 194 L 289 191 L 290 183 Q 290 180 286 180 L 283 183 L 280 194 L 279 194 L 279 192 L 281 189 L 281 180 Q 281 177 277 177 Z " /><path fill="rgb(249,131,45)" stroke="rgb(249,131,45)" stroke-width="1" opacity="1" d="M 88.5 179 L 99 179.5 L 97 183.5 L 97 193.5 Q 97.5 196.5 101.5 196 Q 102.5 194 103.5 196 L 109.5 195 L 114 190.5 L 114.5 188 L 119 192.5 L 127 205.5 L 127 214.5 L 126 215.5 Q 126.67 219.67 125 221.5 L 117.5 229 L 112.5 233 Q 105.69 234.19 101.5 238 Q 98.25 237.25 97.5 239 L 81.5 239 L 73.5 236 L 70 232.5 L 66 227.5 L 61 217.5 L 61 208.5 L 62 207.5 L 63 200.5 L 73.5 187 L 83.5 180 Q 87.5 181 88.5 179 Z M 76 188 Q 73 188 73 193 L 85 204 L 88 205 L 96 213 L 99 213 Q 102 213 101 209 L 90 198 L 87 197 L 78 188 L 76 188 Z M 74 197 L 71 200 L 72 204 L 86 217 Q 90 217 90 215 L 90 213 L 83 206 Q 84 203 82 204 L 79 201 L 76 197 L 74 197 Z M 69 203 L 66 206 L 67 210 L 77 219 L 79 219 Q 82 218 81 214 L 77 210 L 74 207 L 71 203 L 69 203 Z " /><path fill="rgb(249,131,45)" stroke="rgb(249,131,45)" stroke-width="1" opacity="1" d="M 278.5 195 L 279 196.5 L 277.5 199 L 277 197.5 L 278.5 195 Z " /><path fill="rgb(232,16,16)" stroke="rgb(232,16,16)" stroke-width="1" opacity="1" d="M 53.5 86 L 57.5 87 Q 58.25 85.25 61.5 86 L 66 89.5 Q 68.33 92.67 67 99.5 L 64 105.5 L 58 111.5 L 56 114.5 L 56 116.5 L 53.5 119 Q 49.5 119.5 49 116.5 Q 50.25 112.75 46.5 114 L 34.5 108 L 29 102.5 L 27 98.5 L 27 90.5 Q 28 87 33.5 88 L 40 93.5 L 41.5 96 L 46.5 100 L 49 95.5 L 50 89.5 L 53.5 86 Z M 60 96 L 59 98 L 60 98 L 60 96 Z M 59 99 L 59 100 L 59 99 Z " /><path fill="rgb(232,16,16)" stroke="rgb(232,16,16)" stroke-width="1" opacity="1" d="M 274.5 136 L 278.5 136 L 282 139.5 L 283 143.5 L 288 148.5 L 288 150 L 289.5 150 L 293 146.5 L 295.5 143 Q 299.75 142.25 301.5 139 L 306.5 139 Q 310.5 140.5 309 147.5 L 307 152.5 L 298.5 161 Q 294.25 161.75 292.5 165 L 290.5 165 L 287.5 168 L 283.5 168 L 277 162.5 L 272 152.5 L 270 146.5 L 270 142.5 L 274.5 136 Z " /><path fill="rgb(232,16,16)" stroke="rgb(232,16,16)" stroke-width="1" opacity="1" d="M 82.5 244 L 88.5 244 L 93 248.5 L 95 252.5 L 95 257.5 L 94 258.5 L 93 269.5 L 85.5 278 L 73.5 278 L 68.5 275 L 62 268.5 L 61 265.5 L 61 258.5 L 64.5 254 L 71.5 255 L 76.5 259 L 77 254.5 L 78 253.5 L 78 249.5 L 82.5 244 Z " /></svg>